<?xml version="1.0" encoding="UTF-8"?>
<svg id="Layer_1" data-name="Layer 1" xmlns="http://www.w3.org/2000/svg" viewBox="0 0 903.524 307.2">
  <defs>
  </defs>
  <g>
    <g>
      <path class="cls-1" d="M142.078,150.848v-63.038c0-3.182,2.58-5.762,5.762-5.762h0c3.182,0,5.762,2.58,5.762,5.762v63.038c0,19.035-6.708,35.26-20.124,48.676s-29.643,20.124-48.676,20.124-35.26-6.708-48.676-20.124-20.124-29.641-20.124-48.676v-63.038c0-3.182,2.58-5.762,5.762-5.762h0c3.182,0,5.762,2.58,5.762,5.762v63.038c0,10.32,2.55,19.896,7.654,28.724,5.101,8.831,12.067,15.798,20.898,20.898,8.829,5.104,18.404,7.654,28.724,7.654s19.893-2.551,28.724-7.654c8.828-5.101,15.794-12.067,20.898-20.898,5.101-8.828,7.654-18.403,7.654-28.724Z"/>
      <path class="cls-1" d="M84.802,227.647c-21.145,0-39.424-7.559-54.333-22.467s-22.467-33.188-22.467-54.333v-63.038c0-7.588,6.173-13.762,13.762-13.762s13.762,6.173,13.762,13.762v63.038c0,8.975,2.152,17.061,6.58,24.72,4.43,7.669,10.309,13.548,17.973,17.975,7.663,4.43,15.749,6.582,24.723,6.582s17.059-2.152,24.721-6.581c7.664-4.428,13.543-10.308,17.974-17.975,4.428-7.663,6.581-15.75,6.581-24.721v-63.038c0-7.588,6.173-13.762,13.762-13.762s13.762,6.173,13.762,13.762v63.038c0,21.145-7.559,39.425-22.467,54.333s-33.188,22.467-54.333,22.467Z"/>
    </g>
    <g>
      <path class="cls-1" d="M208.126,102.172c13.416-13.416,29.64-20.124,48.676-20.124s35.26,6.708,48.676,20.124,20.124,29.643,20.124,48.676v63.038c0,3.182-2.579,5.761-5.761,5.761h0c-3.182,0-5.762-2.58-5.762-5.762v-63.038c0-10.32-2.554-19.893-7.654-28.724-5.104-8.829-12.069-15.794-20.898-20.898-8.831-5.101-18.403-7.654-28.724-7.654-10.122,0-19.528,2.456-28.215,7.363-9.051,5.113-16.581,12.643-21.695,21.693-4.911,8.691-7.365,18.095-7.365,28.219v63.038c0,3.182-2.58,5.762-5.762,5.762h0c-3.182,0-5.762-2.58-5.762-5.762v-63.038c0-19.033,6.708-35.26,20.124-48.676Z"/>
      <path class="cls-1" d="M319.84,227.647c-7.588,0-13.762-6.174-13.762-13.762v-63.038c0-8.968-2.153-17.054-6.582-24.723-4.429-7.662-10.309-13.542-17.974-17.973-7.665-4.428-15.752-6.581-24.72-6.581-8.799,0-16.741,2.07-24.28,6.329-7.801,4.407-14.256,10.861-18.666,18.664-4.259,7.538-6.33,15.481-6.33,24.283v63.038c0,7.588-6.173,13.762-13.762,13.762s-13.762-6.174-13.762-13.762v-63.038c0-21.145,7.559-39.424,22.467-54.333s33.188-22.467,54.333-22.467,39.424,7.559,54.333,22.467,22.467,33.188,22.467,54.333v63.038c0,7.588-6.173,13.762-13.761,13.762Z"/>
    </g>
    <g>
      <path class="cls-1" d="M360.002,213.886v-126.076c0-3.182,2.58-5.762,5.762-5.762h0c3.182,0,5.762,2.58,5.762,5.762v126.076c0,3.182-2.58,5.762-5.762,5.762h0c-3.182,0-5.762-2.58-5.762-5.762Z"/>
      <path class="cls-1" d="M365.764,227.647c-7.588,0-13.762-6.174-13.762-13.762v-126.076c0-7.588,6.173-13.762,13.762-13.762s13.762,6.173,13.762,13.762v126.076c0,7.588-6.173,13.762-13.762,13.762Z"/>
    </g>
    <g>
      <path class="cls-1" d="M646.726,82.048h63.038c3.182,0,5.762,2.58,5.762,5.762h0c0,3.182-2.58,5.762-5.762,5.762h-63.038c-10.32,0-19.896,2.553-28.724,7.654-8.831,5.104-15.798,12.069-20.898,20.898-5.104,8.831-7.654,18.404-7.654,28.724s2.551,19.896,7.654,28.724c5.101,8.831,12.067,15.798,20.898,20.898,8.828,5.104,18.403,7.654,28.724,7.654h63.038c3.182,0,5.762,2.58,5.762,5.762h0c0,3.182-2.579,5.761-5.761,5.761h-63.038c-19.035,0-35.26-6.708-48.676-20.124s-20.124-29.641-20.124-48.676,6.708-35.26,20.124-48.676,29.641-20.124,48.676-20.124ZM657.476,156.954c-1.663-1.661-2.494-3.698-2.494-6.106s.831-4.442,2.494-6.106c1.661-1.661,3.698-2.494,6.106-2.494s4.442.833,6.105,2.494c1.661,1.664,2.494,3.698,2.494,6.106s-.833,4.445-2.494,6.106-3.698,2.493-6.105,2.493-4.445-.83-6.106-2.493Z"/>
      <path class="cls-1" d="M709.764,227.647h-63.038c-21.145,0-39.425-7.559-54.333-22.467s-22.467-33.188-22.467-54.333,7.559-39.424,22.467-54.333,33.188-22.467,54.333-22.467h63.038c7.588,0,13.762,6.173,13.762,13.762s-6.174,13.762-13.762,13.762h-63.038c-8.971,0-17.058,2.153-24.722,6.581-7.667,4.431-13.546,10.31-17.974,17.973-4.429,7.664-6.581,15.75-6.581,24.722s2.152,17.061,6.58,24.72c4.43,7.669,10.308,13.547,17.974,17.975,7.662,4.43,15.748,6.582,24.723,6.582h63.038c7.588,0,13.762,6.174,13.762,13.762s-6.174,13.762-13.762,13.762ZM663.582,167.447c-4.532,0-8.599-1.671-11.76-4.833h0s-.002-.002-.004-.003c0-.002-.002-.003-.003-.004-3.163-3.162-4.834-7.229-4.834-11.76s1.673-8.597,4.837-11.762c3.166-3.165,7.233-4.837,11.764-4.837s8.592,1.671,11.758,4.833c3.171,3.175,4.842,7.241,4.842,11.767s-1.673,8.599-4.837,11.764c-3.164,3.163-7.231,4.836-11.763,4.836ZM663.275,151.419s.089.028.307.028.304-.028.309-.029c0,0,.048-.029.14-.121.095-.094.122-.143.123-.145h0s.028-.085.028-.305-.028-.303-.029-.306h0s-.029-.051-.126-.147c-.09-.09-.14-.117-.141-.118h0s-.086-.028-.304-.028c-.22,0-.306.029-.309.03h0s-.048.027-.142.121c-.093.093-.121.143-.122.145h0s-.028.086-.028.304.028.305.03.31h0s.028.048.117.137l.007.007c.09.089.137.117.14.118h0Z"/>
    </g>
    <g>
      <path class="cls-1" d="M770.05,102.172c13.416-13.416,29.641-20.124,48.676-20.124s35.26,6.708,48.676,20.124,20.124,29.643,20.124,48.676v63.038c0,3.182-2.579,5.761-5.761,5.761h0c-3.182,0-5.762-2.58-5.762-5.762v-63.038c0-10.32-2.554-19.893-7.654-28.724-5.104-8.829-12.069-15.794-20.898-20.898-8.831-5.101-18.403-7.654-28.724-7.654s-19.896,2.553-28.724,7.654c-8.831,5.104-15.798,12.069-20.898,20.898-5.104,8.831-7.654,18.404-7.654,28.724v63.038c0,3.182-2.579,5.761-5.761,5.761h0c-3.182,0-5.762-2.58-5.762-5.762v-63.038c0-19.033,6.708-35.26,20.124-48.676Z"/>
      <path class="cls-1" d="M881.764,227.647c-7.588,0-13.762-6.174-13.762-13.762v-63.038c0-8.968-2.153-17.054-6.582-24.723-4.429-7.662-10.31-13.542-17.975-17.973-7.665-4.428-15.751-6.581-24.72-6.581s-17.058,2.153-24.722,6.581c-7.667,4.431-13.546,10.31-17.974,17.973-4.429,7.664-6.581,15.75-6.581,24.722v63.038c0,7.588-6.174,13.762-13.762,13.762s-13.762-6.174-13.762-13.762v-63.038c0-21.145,7.559-39.424,22.467-54.333s33.188-22.467,54.333-22.467,39.425,7.559,54.333,22.467,22.467,33.188,22.467,54.333v63.038c0,7.588-6.174,13.762-13.762,13.762Z"/>
    </g>
  </g>
  <g>
    <path class="cls-1" d="M537.231,31.972l-92.129,220.209c-3.177,7.593,2.401,15.972,10.631,15.972h420.267c6.364,0,11.524,5.159,11.524,11.524h0c0,6.365-5.159,11.524-11.524,11.524h-453.074c-8.23,0-13.808-8.379-10.631-15.972l92.13-220.209c3.177-7.593-2.401-15.972-10.631-15.972H27.524c-6.364,0-11.524-5.159-11.524-11.524h0c0-6.365,5.159-11.524,11.524-11.524h499.076c8.23,0,13.808,8.379,10.631,15.972Z"/>
    <path class="cls-1" d="M876.001,307.2h-453.074c-9.232,0-17.797-4.588-22.913-12.273-5.115-7.685-6.042-17.357-2.479-25.874l89.535-214.005H27.524C12.347,55.048,0,42.701,0,27.524S12.347,0,27.524,0h499.077c9.231,0,17.797,4.588,22.912,12.273,5.115,7.685,6.041,17.358,2.479,25.874h0l-89.534,214.005h413.543c15.177,0,27.523,12.347,27.523,27.523s-12.347,27.524-27.523,27.524ZM429.652,275.2h5.764c-.939-1.03-1.808-2.139-2.595-3.321-.375-.564-.729-1.139-1.059-1.724l-2.11,5.045ZM514.111,32c.939,1.03,1.808,2.138,2.595,3.32.376.564.729,1.139,1.06,1.724l2.11-5.044h-5.765Z"/>
  </g>
</svg>