<?xml version="1.0" encoding="UTF-8"?>
<svg id="Logo" xmlns="http://www.w3.org/2000/svg" viewBox="0 0 919.328 287.8">
  <defs>
    <style>
      .cls-1 {
        fill: #fff;
        stroke: #fff;
        stroke-miterlimit: 10;
        stroke-width: 10px;
      }
    </style>
  </defs>
  <path class="cls-1" d="M163.328,143.9v-79.164c0-3.996,3.24-7.236,7.236-7.236h0c3.996,0,7.236,3.24,7.236,7.236v79.164c0,23.906-8.424,44.28-25.272,61.128s-37.226,25.272-61.128,25.272-44.28-8.424-61.128-25.272-25.272-37.222-25.272-61.128v-79.164c0-3.996,3.24-7.236,7.236-7.236h0c3.996,0,7.236,3.24,7.236,7.236v79.164c0,12.96,3.203,24.985,9.612,36.073,6.406,11.09,15.154,19.838,26.244,26.243,11.087,6.409,23.112,9.612,36.072,9.612,13.356,0,25.714-3.401,37.085-10.208,10.106-6.05,18.613-14.559,24.656-24.669,6.789-11.357,10.187-23.708,10.187-37.051Z"/>
  <path class="cls-1" d="M234.263,82.772c16.848-16.848,37.223-25.272,61.128-25.272s44.28,8.424,61.128,25.272,25.272,37.226,25.272,61.128v79.164c0,3.996-3.24,7.236-7.236,7.236h0c-3.996,0-7.236-3.24-7.236-7.236v-79.164c0-12.96-3.207-24.981-9.612-36.072-6.409-11.087-15.157-19.835-26.244-26.244-11.09-6.406-23.112-9.612-36.072-9.612-13.348,0-25.704,3.401-37.065,10.196-10.11,6.047-18.618,14.556-24.666,24.665-6.8,11.365-10.197,23.718-10.197,37.067v79.164c0,3.996-3.24,7.236-7.236,7.236h0c-3.996,0-7.236-3.24-7.236-7.236v-79.164c0-23.902,8.424-44.28,25.272-61.128Z"/>
  <path class="cls-1" d="M417.322,223.064V64.736c0-3.996,3.24-7.236,7.236-7.236h0c3.996,0,7.236,3.24,7.236,7.236v158.328c0,3.996-3.24,7.236-7.236,7.236h0c-3.996,0-7.236-3.24-7.236-7.236Z"/>
  <path class="cls-1" d="M530.369,18.838l-43.726,226.859c-1.383,7.177,4.116,13.838,11.425,13.838h404.624c6.426,0,11.635,5.209,11.635,11.635h0c0,6.423-5.207,11.63-11.63,11.63h-429.37c-7.309,0-12.809-6.66-11.425-13.838l43.726-226.858c1.383-7.177-4.116-13.838-11.425-13.838H16.631c-6.424,0-11.631-5.207-11.631-11.631h0c0-6.426,5.209-11.636,11.635-11.636h502.309c7.309,0,12.809,6.66,11.425,13.838Z"/>
  <path class="cls-1" d="M629.187,57.5h79.163c3.996,0,7.236,3.24,7.236,7.236h0c0,3.997-3.24,7.237-7.236,7.237h-79.163c-12.961,0-24.986,3.206-36.072,9.612-11.09,6.409-19.838,15.157-26.244,26.244-6.41,11.09-9.612,23.112-9.612,36.072s3.202,24.985,9.612,36.073c6.406,11.09,15.154,19.838,26.244,26.243,11.086,6.409,23.111,9.612,36.072,9.612h79.163c3.996,0,7.236,3.24,7.236,7.236h0c0,3.996-3.24,7.236-7.236,7.236h-79.163c-23.905,0-44.281-8.424-61.128-25.272-16.849-16.848-25.273-37.222-25.273-61.128s8.424-44.28,25.273-61.128c16.847-16.848,37.223-25.272,61.128-25.272ZM642.687,151.568c-2.089-2.086-3.132-4.644-3.132-7.668s1.043-5.579,3.132-7.668,4.644-3.132,7.667-3.132,5.58,1.046,7.668,3.132c2.086,2.089,3.132,4.644,3.132,7.668s-1.046,5.583-3.132,7.668-4.644,3.132-7.668,3.132-5.581-1.043-7.667-3.132Z"/>
  <path class="cls-1" d="M766.801,82.772c16.849-16.848,37.223-25.272,61.128-25.272s44.279,8.424,61.128,25.272,25.271,37.226,25.271,61.128v79.165c0,3.996-3.239,7.235-7.235,7.235h0c-3.996,0-7.236-3.24-7.236-7.236v-79.164c0-12.96-3.207-24.981-9.612-36.072-6.409-11.087-15.157-19.835-26.244-26.244-11.09-6.406-23.112-9.612-36.072-9.612-13.358,0-25.725,3.406-37.092,10.212-10.108,6.052-18.614,14.566-24.657,24.679-6.787,11.357-10.18,23.7-10.18,37.037v79.165c0,3.996-3.239,7.235-7.235,7.235h0c-3.996,0-7.236-3.24-7.236-7.236v-79.164c0-23.902,8.423-44.28,25.271-61.128Z"/>
</svg>